<?xml version="1.0" standalone="no"?>
<!DOCTYPE svg PUBLIC "-//W3C//DTD SVG 20010904//EN"
 "http://www.w3.org/TR/2001/REC-SVG-20010904/DTD/svg10.dtd">
<svg version="1.0" xmlns="http://www.w3.org/2000/svg"
 width="700.000000pt" height="700.000000pt" viewBox="0 0 700.000000 700.000000"
 preserveAspectRatio="xMidYMid meet">
<metadata>
Created by potrace 1.11, written by Peter Selinger 2001-2013
</metadata>
<g transform="translate(0.000000,700.000000) scale(0.100000,-0.100000)"
fill="#000000" stroke="none">
<path d="M1364 6871 c-40 -24 -51 -57 -52 -154 0 -42 -1 -94 -1 -115 l-1 -39
-462 0 c-412 -1 -469 -3 -513 -18 -91 -32 -151 -86 -194 -175 l-26 -55 -2
-2205 -2 -2205 21 -55 c29 -74 114 -160 188 -188 53 -20 73 -21 574 -21 286
-1 521 -2 523 -4 2 -2 4 -291 6 -643 3 -624 3 -640 24 -684 31 -68 96 -135
161 -167 l57 -28 2035 -3 c1871 -2 2038 -1 2085 14 102 34 186 117 215 214 11
37 14 324 14 1658 1 886 -1 1612 -4 1612 -3 0 -200 -195 -437 -432 l-433 -433
0 155 0 155 555 555 555 555 -382 382 c-211 211 -387 383 -392 383 -4 0 -81
-72 -170 -161 l-161 -161 -5 854 -5 853 -26 55 c-46 97 -139 170 -237 186 -20
4 -239 7 -486 8 l-450 1 1 120 c0 135 -9 165 -59 191 -56 29 -127 3 -149 -55
-5 -13 -10 -76 -10 -140 l-1 -118 -1094 0 -1094 0 0 130 0 130 -36 33 c-41 40
-82 44 -130 15z m-64 -530 c13 -1 15 -21 13 -126 l-1 -126 33 -34 c38 -41 82
-48 133 -22 42 21 52 56 52 187 0 66 3 120 8 121 25 3 2150 4 2165 1 16 -4 17
-17 16 -117 -2 -128 7 -163 52 -189 48 -28 96 -24 133 13 30 31 30 31 33 153
1 68 2 128 2 133 1 8 744 13 891 6 30 -1 74 -37 84 -69 6 -17 10 -494 6 -669
l0 -23 -2295 0 -2295 0 0 340 c0 279 3 346 15 369 14 28 49 48 95 53 23 3 825
2 860 -1z m3621 -993 c3 -59 -1 -630 -5 -636 -3 -5 -720 -8 -1593 -8 -1119 1
-1603 -2 -1638 -10 -125 -27 -213 -109 -249 -231 -13 -45 -15 -214 -15 -1280
0 -675 0 -1249 0 -1276 l-1 -48 -516 3 -516 3 -29 33 -29 32 0 1715 0 1715
2295 0 c1829 0 2295 -3 2296 -12z m2 -745 c-1 -49 -2 -118 -2 -154 l-1 -66
-959 -959 c-616 -617 -965 -973 -978 -999 -11 -22 -59 -158 -107 -303 l-88
-262 -114 0 c-63 0 -114 1 -114 3 0 2 43 134 96 293 151 456 0 271 1215 1487
576 576 1049 1047 1051 1047 1 0 2 -39 1 -87z m-1 -1930 l-1 -147 -333 -333
-333 -333 -155 0 -155 0 485 485 c266 266 486 482 489 479 3 -2 4 -71 3 -151z
m-2212 -1040 c0 -5 -12 -43 -26 -86 -30 -89 -27 -131 10 -166 50 -47 49 -48
525 111 l444 148 186 0 186 -1 -73 -68 c-41 -39 -99 -81 -135 -98 -34 -17
-275 -101 -536 -188 -459 -152 -477 -157 -540 -153 -150 11 -267 111 -301 255
-13 59 -9 118 16 197 l18 56 113 0 c62 0 113 -3 113 -7z"/>
<path d="M6201 5559 c-128 -33 -185 -73 -387 -273 l-183 -182 392 -392 393
-393 190 193 c203 207 239 259 270 388 19 81 12 221 -15 300 -94 274 -383 431
-660 359z"/>
</g>
</svg>
