<svg height="512" viewBox="0 0 64 64" width="512" xmlns="http://www.w3.org/2000/svg"><g id="Line"><g fill="#c4a2fc"><path d="m34.314 50.844-8.043 2.679a3 3 0 0 1 -3.8-3.794l2.679-8.038a5.037 5.037 0 0 1 1.2-1.951l18.75-18.74h-29.1a3 3 0 0 0 -3 3v36a3 3 0 0 0 3 3h36a3 3 0 0 0 3-3v-29.1l-18.737 18.737a5.043 5.043 0 0 1 -1.949 1.207z"/><path d="m27.776 41.152a3.024 3.024 0 0 0 -.723 1.172l-2.679 8.037a1 1 0 0 0 1.265 1.265l8.037-2.679a3.02 3.02 0 0 0 1.171-.724l22.295-22.294-7.071-7.071z"/><path d="m61.518 14.484a5.065 5.065 0 0 0 -7.166 0l-2.867 2.867 7.167 7.164 2.866-2.866a5.071 5.071 0 0 0 0-7.165z"/></g><path d="m44 4h-8v-2a1 1 0 0 0 -2 0v2h-20v-2a1 1 0 0 0 -2 0v2h-8a3 3 0 0 0 -3 3v39a3 3 0 0 0 3 3h40a3 3 0 0 0 3-3v-39a3 3 0 0 0 -3-3zm-41 3a1 1 0 0 1 1-1h8v2a1 1 0 0 0 2 0v-2h20v2a1 1 0 0 0 2 0v-2h8a1 1 0 0 1 1 1v6h-42zm42 39a1 1 0 0 1 -1 1h-40a1 1 0 0 1 -1-1v-31h42z" fill="#151a6a"/><path d="m18 31h12a1 1 0 0 0 0-2h-12a1 1 0 0 0 0 2z" fill="#151a6a"/></g></svg>